<?xml version="1.0" encoding="UTF-8"?>
<svg width="52px" height="33px" viewBox="0 0 52 33" version="1.1" xmlns="http://www.w3.org/2000/svg" xmlns:xlink="http://www.w3.org/1999/xlink">
    <title>8428CAA8-F717-4EC3-85E3-29B705D7FEA3</title>
    <g id="Symbols" stroke="none" stroke-width="1" fill="none" fill-rule="evenodd">
        <g id="Services-/-Icons-/-New-Career-Exploration" transform="translate(-4.000000, -13.000000)" fill-rule="nonzero">
            <g id="artboard" transform="translate(5.000000, 14.000000)">
                <path d="M44.9684874,3.37268908 C42.7941176,3.5407563 39.9159664,4.12594538 36.6255252,5.06659664 C32.2712841,0.37142142 25.5033234,-1.21152338 19.5183824,1.06544118 C12.8720588,3.6032563 8.93203782,10.2068277 9.43571429,16.9858193 C6.45567227,18.784979 4.04957983,20.5057773 2.46176471,21.9762605 C0.481722689,23.8101891 -0.240966387,25.2535714 0.252415966,26.3894958 C0.4625,26.8745798 0.877205882,27.2410714 1.48298319,27.4789916 C2.0887605,27.7169118 2.88697479,27.8163866 3.79464286,27.8163866 C6.04012605,27.8163866 8.95955882,27.2089286 11.3302521,26.5969538 C11.9329132,26.4414216 12.5520658,26.2722339 13.1877101,26.0893908 C16.4886765,29.9442111 21.4502362,31.9644302 26.5050566,31.5118706 C31.5598769,31.0593109 36.0836635,28.1898657 38.6473739,23.809979 C40.3721745,20.8608357 41.1009266,17.434467 40.7256303,14.0386555 C41.8533613,13.3537815 42.9069328,12.6754202 43.8712185,12.0113445 C48.5521008,8.78529412 50.4743697,6.40409664 49.7478992,4.73193277 C49.2589286,3.60619748 47.6954832,3.16176471 44.9684874,3.37268908 Z M39.4033613,9.25987395 C39.0234216,8.41989233 38.5707887,7.61472746 38.0506303,6.85357143 C40.190021,6.63613445 40.8611345,7.03539916 40.922584,7.17668067 C40.9829832,7.31607143 40.7983193,7.98907563 39.4032563,9.25987395 L39.4033613,9.25987395 Z M20.0428571,2.43928571 C25.560555,0.340605788 31.801025,1.86414121 35.7308824,6.26932773 C35.7793668,6.35453308 35.8444877,6.42912036 35.9223739,6.48865546 C36.8795534,7.61242408 37.6567758,8.877758 38.2263655,10.2396008 C37.9298319,10.4685924 37.6038866,10.7101891 37.2415966,10.9661765 C34.3377101,13.0178571 30.2457983,15.2387605 25.7184874,17.219958 C20.0777311,19.6884454 15.3106092,21.1301471 12.1164916,21.6718487 C12.0009454,21.4142857 11.8927521,21.1531513 11.7932773,20.8907563 C11.3716465,19.7798124 11.0898266,18.6207409 10.9543067,17.4402311 C10.9638525,17.3430762 10.9538156,17.2449936 10.9247899,17.1517857 C10.3387605,10.9080882 13.9268908,4.77457983 20.0428571,2.43928571 Z M9.76586134,19.2256303 C9.93070009,19.96906 10.1488408,20.6996596 10.4185924,21.4117647 C10.4768908,21.5660714 10.5389706,21.7197479 10.602416,21.8728992 C9.54632353,21.9668067 8.76344538,21.9192227 8.30073529,21.7375 C8.20027124,21.7104423 8.11118117,21.6517733 8.04663866,21.5701681 C7.96911765,21.3918067 8.17027311,20.6185924 9.76586134,19.2256303 Z M37.3784664,23.0662815 C35.1174172,26.9393104 31.1604922,29.5174557 26.7041509,30.0211608 C22.2478096,30.5248659 17.8152477,28.8949935 14.7467437,25.6243697 C18.6351891,24.4245798 22.982563,22.7922269 27.3192227,20.8941176 C31.7059874,18.9741597 35.8191176,16.9061975 39.3232143,14.8710084 C39.5042963,17.7353713 38.8272036,20.5886766 37.3784664,23.0662815 Z" id="Shape" stroke="#B9BFD0" stroke-width="0.847457627" fill="#B9BFD0"></path>
                <path d="M43.0366597,10.799895 C38.9095588,13.6444328 33.1181723,16.7508403 26.7296218,19.5468487 C14.0059874,25.1155462 4.50220588,27.0851891 2.02037815,26.110084 C1.86281513,26.0483193 1.6625,25.944958 1.60115546,25.8035714 C1.48308824,25.5319328 1.74201681,24.6473739 3.46102941,23.0551471 C4.52992256,22.0928003 5.66353262,21.2048643 6.85388655,20.397584 C6.5262605,21.0504202 6.47279412,21.6386555 6.69779412,22.1560924 C6.88266807,22.5816176 7.24107143,22.9012605 7.76313025,23.1063025 C8.26218487,23.3023109 8.91081933,23.3826681 9.63991597,23.3826681 C11.2733193,23.3826681 13.3091387,22.9787815 14.9628151,22.5658613 C18.2790966,21.7380252 22.3082983,20.3179622 26.3085084,18.5672269 C30.9234244,16.5473739 35.107563,14.2744748 38.0902311,12.1672269 C41.490021,9.76512605 42.8577731,7.94117647 42.2709034,6.5907563 C42.044958,6.0710084 41.569958,5.7105042 40.8518908,5.50882353 C46.0258403,4.38487395 48.1793067,4.81197479 48.3986345,5.31701681 C48.6056723,5.79264706 47.7508403,7.55084034 43.0366597,10.799895 Z" id="Path" fill="#FFCA7B"></path>
            </g>
        </g>
    </g>
</svg>