<?xml version="1.0" encoding="UTF-8"?>
<svg width="50px" height="50px" viewBox="0 0 50 50" version="1.1" xmlns="http://www.w3.org/2000/svg" xmlns:xlink="http://www.w3.org/1999/xlink">
    <title>6CA5A9B7-05C5-4B36-BFFC-3D23957BA0B0</title>
    <g id="Symbols" stroke="none" stroke-width="1" fill="none" fill-rule="evenodd">
        <g id="Services-/-Icons-/-Support-System" transform="translate(-5.000000, -5.000000)" fill-rule="nonzero">
            <g id="help" transform="translate(7.000000, 7.000000)">
                <path d="M39.8207093,18.8501282 C39.668396,31.7949219 30.7949219,39.668396 17.8501282,39.8207093 C20.3282013,44.7252655 25.4226227,46 31.1308594,46 C33.8072204,46 36.4098815,45.2872162 38.6966858,43.9328919 L45.9350739,45.9350739 L43.9328919,38.6966858 C45.2872162,36.4098815 46,33.8072204 46,31.1308594 C46,25.4226227 44.7252655,21.3282013 39.8207093,18.8501282 Z" id="Path" stroke="#B9BFD0" stroke-width="2.4" fill="#FFFFFF"></path>
                <path d="M35.1289063,17.5644531 C35.1289063,7.87922671 27.2496795,0 17.5644531,0 C7.87922671,0 0,7.87922671 0,17.5644531 C0,20.7209167 0.840179398,23.7942047 2.43560791,26.4923249 L0.0645751953,35.0639801 L8.6365814,32.6932983 C11.3347015,34.2887269 14.4079895,35.1289063 17.5644531,35.1289063 C27.2496795,35.1289063 35.1289063,27.2496795 35.1289063,17.5644531 Z" id="Shape" stroke="#B9BFD0" stroke-width="2.4" fill="#FFFFFF"></path>
                <path d="M18.9121094,24.3476562 L18.9121094,27.0429687 L16.2167969,27.0429687 L16.2167969,24.3476562 L18.9121094,24.3476562 Z M17.5644531,8.0859375 C20.5370179,8.0859375 22.9550781,10.5039978 22.9550781,13.4765625 C22.9550781,14.9853058 22.3163452,16.4354401 21.2020721,17.4546051 L18.9121094,19.5504914 L18.9121094,21.6523438 L16.2167969,21.6523438 L16.2167969,18.3635711 L19.3823853,15.4661102 C19.9481201,14.9484558 20.2597656,14.2419891 20.2597656,13.4765625 C20.2597656,11.9902801 19.0507355,10.78125 17.5644531,10.78125 C16.0781708,10.78125 14.8691406,11.9902801 14.8691406,13.4765625 L12.1738281,13.4765625 C12.1738281,10.5039978 14.5918884,8.0859375 17.5644531,8.0859375 Z" id="Combined-Shape" fill="#FFCA7B"></path>
            </g>
        </g>
    </g>
</svg>