<svg xmlns="http://www.w3.org/2000/svg" width="85" height="70" viewBox="0 0 85 70">
    <g fill="none" fill-rule="evenodd">
        <g fill="#58B368" fill-rule="nonzero">
            <g>
                <g>
                    <g>
                        <path d="M87.81 34.734l5.592 3.476h-6.695l1.102-3.476zM37.75 48.902L19.083 35.396h7.807l10.861 13.506zm9.442 22.177l-5.549 11.044 3.17-20.51 2.379 9.466zm2.175-1.576l-3.213-12.797 27.864 2.133-24.65 10.664zM76.31 56.526l-29.997-2.298 9.23-22.955L76.31 56.526zM20.956 24.04l32.486 5.773-9.281 23.084-23.205-28.857zm64.04 11.316l-6.37 20.066-9.552-11.617 15.922-8.449zM98.8 40.121l.008-.012.017-.026.035-.068.023-.045.028-.064.021-.053.017-.061.016-.06.012-.055.01-.07.007-.051.004-.074.002-.03-.002-.02-.004-.069-.004-.057-.009-.058-.012-.065-.012-.047-.019-.07-.043-.113-.023-.045-.029-.06-.035-.052-.028-.048-.044-.057-.028-.037-.048-.053-.035-.037-.047-.043-.048-.039-.043-.033-.06-.04-.014-.01-10.645-6.62-.023-.012-.045-.027-.027-.014-.047-.02-.035-.017-.027-.01-.06-.023-.022-.008-.008-.002-.023-.006-.07-.019-.027-.006-.018-.002-.072-.012-.054-.006-.064-.002h-.06l-.057.002h-.035l-.031.004-.052.008-.016.002-.025.004-.027.006-.051.012-.062.017-.056.02-.039.013-.016.008-.056.026-.041.019-.004.002-19.057 10.11-11.327-13.772-.002-.002-.01-.012-.027-.031-.055-.057-.035-.031-.054-.05-.056-.04-.006-.002-.037-.027-.06-.035-.045-.027-.058-.026-.051-.025-.054-.018-.063-.023-.009-.002-.057-.012-.052-.012-.02-.005-37.253-6.619-.037-.006-.068-.006-.062-.004-.058-.002-.068.002-.053.004-.066.008-.054.01-.064.015-.057.014-.056.02-.058.021-.053.025-.056.029-.053.03-.052.031-.055.041-.03.02-.014.013-.053.047-.04.035-.045.049-.037.043-.037.051-.035.047-.03.052-.032.05-.026.056-.025.055-.02.054-.021.063-.015.052-.014.067-.004.019-.004.036-.009.066-.004.062-.002.059.002.063.004.056.009.065.01.056.014.06.017.059.018.055.023.057.023.054.029.057.03.053.031.05.042.055.02.028 7.96 9.9h-9.647l-.033.002-.07.002-.06.007-.057.01-.066.012-.05.014-.065.02-.052.02-.06.024-.051.025-.054.028-.055.033-.044.03-.055.04-.041.035-.048.045-.043.04-.04.044-.044.055-.021.025-.01.016-.04.061-.026.043-.033.062-.025.05-.023.059-.02.055-.017.055-.016.064-.008.053-.01.07-.005.05-.004.073-.002.02.002.033.004.068.006.059.009.057.014.066.012.051.021.066.019.049.024.061.054.103.033.055.03.045.042.056.033.04.045.048.087.082.055.043.025.02 28.66 20.739-5.206 33.658-.002.013v.004l-.002.014-.01.105v.12l.006.06.004.057.013.072.01.045.018.072.015.045.025.063.02.05.027.053.03.055.026.043.039.058.029.034.047.06.03.033.054.053.042.037.047.039.064.045.035.024.095.052.012.008h.002l.13.057.033.01.094.027.062.014.048.009h.014l.173.014h.004l.153-.01.028-.004.297-.082.027-.01.134-.07.022-.015.103-.073.031-.023.105-.098.025-.027.095-.117.002-.004.084-.141.009-.012 9.11-18.13 30.192-13.06.022-.012.072-.035.007-.004.01-.004.027-.017.055-.034.035-.023.015-.01.039-.031.01-.008.008-.008.035-.03.033-.032.015-.012.037-.037.029-.035.029-.033.016-.02.012-.017.013-.018.004-.004.027-.041.008-.014.029-.046.022-.045.002-.002.005-.008.024-.053.02-.045.005-.008.02-.06.003-.008.004-.01.004-.017 5.602-17.652h11.84l.138-.008.037-.004.107-.02.04-.01.102-.036.035-.01.128-.061.004-.002.115-.07.042-.033.072-.057.039-.035.086-.094.01-.01.087-.12z" transform="translate(-678 -377) translate(165 130) translate(380 132) translate(119 94)"/>
                    </g>
                </g>
            </g>
        </g>
    </g>
</svg>
