<svg xmlns="http://www.w3.org/2000/svg" width="81" height="82" viewBox="0 0 81 82">
    <g fill="none" fill-rule="evenodd">
        <g fill="#58B368" fill-rule="nonzero" stroke="#58B368" stroke-width=".6">
            <g>
                <g>
                    <g>
                        <path d="M63.166 35.901L83.46 61.907H63.166V35.901zM61.862 32.1c-.397.135-.664.511-.664.937v29.865c0 .547.44.99.983.99h23.304c.378 0 .72-.213.883-.557.168-.34.122-.75-.109-1.046L62.956 32.425c-.254-.326-.714-.458-1.094-.326zm-8.385 29.808H25.17l28.307-41.705v41.705zm.173-45.475L22.492 62.338c-.206.305-.229.695-.057 1.023.17.329.503.53.87.53h31.16c.544 0 .986-.443.986-.99V16.993c0-.438-.281-.82-.694-.948-.403-.13-.863.031-1.107.387zm32.784 77.585H26.567l-7.256-24.121h74.376l-7.253 24.121zm8.579-26.104H17.984c-.31 0-.607.15-.788.399-.186.246-.243.574-.157.88l7.852 26.101c.125.418.512.707.945.707h61.33c.434 0 .813-.285.944-.704l7.845-26.104c.095-.299.036-.627-.147-.878-.186-.25-.48-.401-.795-.401h0z" transform="translate(-300 -371) translate(165 130) translate(0 132) translate(119 94)"/>
                    </g>
                </g>
            </g>
        </g>
    </g>
</svg>
