<svg xmlns="http://www.w3.org/2000/svg" width="70" height="71" viewBox="0 0 70 71">
    <g fill="none" fill-rule="evenodd">
        <g stroke="#58B368" stroke-width="2.4">
            <g>
                <g>
                    <g>
                        <g>
                            <path d="M33.775 32.782L33.775 54.679M13.202 67.896h39.275c.014-.216.028-.447.028-.663 0-6.42-5.211-11.632-11.632-11.632-1.771 0-3.456.417-4.967 1.123-2.534-2.304-5.889-3.73-9.574-3.73-5.917 0-11 3.614-13.144 8.769v6.133h.014zM14.728 14.757L33.516 33.559M6.94 21.163c5.542 5.543 13.244 7.616 20.4 6.205 1.396-7.155-.663-14.857-6.205-20.4C15.592 1.425 7.889-.648.735.763c-1.397 7.155.661 14.858 6.204 20.4z" transform="translate(-305 -377) translate(165 130) translate(0 132) translate(119 94) translate(22 22)"/>
                            <g>
                                <path d="M20.141 14.757L.36 34.552M27.916 21.163c-5.543 5.543-13.246 7.616-20.4 6.205-1.397-7.155.661-14.857 6.204-20.4C19.263 1.425 26.965-.648 34.12.763c1.411 7.155-.662 14.858-6.204 20.4z" transform="translate(-305 -377) translate(165 130) translate(0 132) translate(119 94) translate(22 22) translate(33.113)"/>
                            </g>
                        </g>
                    </g>
                </g>
            </g>
        </g>
    </g>
</svg>
