<svg xmlns="http://www.w3.org/2000/svg" width="92" height="84" viewBox="0 0 92 84">
    <g fill="none" fill-rule="evenodd">
        <g fill-rule="nonzero">
            <g>
                <g>
                    <g>
                        <g transform="translate(-225 -1296) translate(165 130) translate(0 1010) translate(50 142) translate(11 14)">
                            <path stroke="#58B368" stroke-width=".566" d="M20.94 56.178c5.815 9.868 17.07 15.18 28.386 13.397 11.314-1.784 20.39-10.302 22.886-21.48"/>
                            <path fill="#58B368" stroke="#58B368" stroke-width=".566" d="M44.973 70.572c-10.103-.028-19.446-5.369-24.596-14.06-.185-.312-.081-.714.23-.898.312-.184.714-.081.898.23 4.914 8.293 13.828 13.39 23.467 13.417h.15c12.679-.147 23.609-8.953 26.45-21.31.079-.353.43-.576.783-.497.354.079.577.43.498.783-2.978 12.95-14.434 22.18-27.722 22.335h-.158z"/>
                            <path stroke="#58B368" stroke-width="1.4" d="M17.73 35.897C20.226 24.717 29.3 16.2 40.616 14.417c11.315-1.785 22.57 3.528 28.385 13.397"/>
                            <rect width="87.03" height="20.537" x="1.484" y="31.721" fill="#FFF" rx="2.231" transform="rotate(-8.973 44.999 41.99)"/>
                            <g fill="#58B368">
                                <path d="M17 45.32v-1.35h-4.513v-2.61h4.119v-1.363h-4.119v-2.314H17V36.32h-6v9h6zm2.766 0l2.215-3.394h.051l2.202 3.394H26v-.128l-2.867-4.372v-.051l2.816-4.32v-.129H24.22l-2.163 3.433h-.052l-2.15-3.433h-1.754v.129l2.842 4.32v.051L18 45.192v.128h1.766zm13.234 0v-1.35h-4.513v-2.61h4.119v-1.363h-4.119v-2.314H33V36.32h-6v9h6zm5.189 0c2.237 0 3.59-1.316 3.811-3.121h-1.548c-.195 1.04-.898 1.78-2.263 1.78-1.86 0-2.628-1.379-2.628-3.146 0-1.768.767-3.159 2.628-3.159 1.418 0 2.133.802 2.25 1.855H42c-.17-1.855-1.561-3.209-3.811-3.209-2.745 0-4.189 1.88-4.189 4.513 0 2.594 1.43 4.487 4.189 4.487zm8.298 0c2.088 0 3.513-1.206 3.513-3.414V36.32h-1.475v5.56c0 1.206-.563 2.095-2.038 2.095-1.45 0-2.025-.889-2.025-2.095v-5.56H43v5.586c0 2.208 1.438 3.414 3.487 3.414zm8.778 0v-7.637H58V36.32h-7v1.363h2.735v7.637h1.53zm5.735 0v-9h-1v9h1zm6.825 0L71 36.45v-.129h-1.638l-2.325 7.11h-.05l-2.374-7.11H63v.129l3.175 8.871h1.65zm10.175 0v-1.35h-4.513v-2.61h4.119v-1.363h-4.119v-2.314H78V36.32h-6v9h6z" transform="translate(0 .68) rotate(-9 44.5 40.82)"/>
                                <path stroke="#58B368" stroke-width="1.4" d="M6.365 37.664c-.264 0-.502-.159-.604-.402-.102-.243-.048-.524.136-.713 1.09-.9 1.938-2.058 2.467-3.369.081-1.478-.203-2.954-.825-4.297-.682-1.967-1.386-3.988-.609-5.623.793-1.675 2.839-2.419 4.817-3.136 1.404-.356 2.7-1.05 3.775-2.021.703-1.28 1.082-2.713 1.104-4.173.24-2.08.486-4.233 1.917-5.388 1.43-1.155 3.567-.936 5.646-.733 1.436.289 2.922.221 4.326-.196 1.167-.84 2.111-1.95 2.753-3.236C32.393 2.59 33.558.742 35.377.313c1.743-.414 3.576.703 5.34 1.78 1.184.902 2.573 1.495 4.043 1.724 1.47-.248 2.856-.856 4.034-1.768C50.547.953 52.367-.18 54.11.214c1.828.402 3.015 2.236 4.156 4.01.655 1.28 1.613 2.38 2.79 3.205 1.41.402 2.894.453 4.327.15 2.075-.23 4.223-.466 5.658.667 1.436 1.132 1.718 3.295 1.978 5.375.037 1.456.428 2.88 1.14 4.151 1.086.96 2.392 1.64 3.801 1.979 1.986.696 4.038 1.414 4.85 3.083.327.7.44 1.481.327 2.246-.025.232-.173.434-.388.528-.214.094-.463.066-.651-.072-.19-.139-.29-.368-.264-.6.084-.517.015-1.046-.199-1.524-.578-1.188-2.373-1.816-4.109-2.424-1.646-.398-3.159-1.224-4.385-2.394-.885-1.45-1.375-3.109-1.42-4.808-.228-1.821-.464-3.704-1.489-4.512-1.025-.81-2.884-.594-4.703-.394-1.672.355-3.407.265-5.033-.262-1.414-.913-2.562-2.182-3.33-3.68-1.003-1.555-2.033-3.16-3.344-3.446-1.23-.278-2.81.712-4.337 1.667-1.372 1.06-3 1.738-4.72 1.967h-.022c-1.713-.214-3.34-.874-4.719-1.913-1.539-.94-3.13-1.905-4.359-1.622-1.295.302-2.314 1.918-3.297 3.482-.75 1.503-1.88 2.784-3.277 3.714-1.621.548-3.358.66-5.036.325-1.811-.18-3.686-.364-4.692.447-1.005.812-1.23 2.7-1.442 4.52-.026 1.704-.501 3.371-1.376 4.834-1.213 1.182-2.716 2.024-4.358 2.441-1.728.628-3.516 1.276-4.078 2.466-.547 1.148.068 2.918.663 4.63.724 1.564 1.024 3.291.87 5.008-.566 1.56-1.536 2.943-2.81 4.006-.123.127-.29.198-.467.2h0zM36.566 82.5c-.247 0-.493-.027-.734-.08-1.823-.403-3.006-2.238-4.152-4.013-.655-1.279-1.61-2.378-2.785-3.204-1.412-.402-2.901-.453-4.338-.148-2.072.229-4.22.465-5.649-.67-1.428-1.133-1.714-3.287-1.978-5.366-.037-1.46-.431-2.887-1.148-4.158-1.087-.96-2.392-1.64-3.802-1.98-1.986-.696-4.038-1.415-4.85-3.083-.321-.699-.435-1.474-.328-2.236.04-.357.356-.618.714-.59.36.033.625.352.592.712-.08.52-.012 1.052.198 1.534.578 1.188 2.372 1.816 4.108 2.424 1.647.399 3.16 1.224 4.385 2.394.893 1.452 1.388 3.114 1.434 4.818.231 1.817.467 3.695 1.49 4.503 1.025.807 2.885.594 4.693.393 1.675-.355 3.414-.265 5.043.262 1.41.915 2.556 2.183 3.323 3.679 1.003 1.552 2.039 3.157 3.335 3.444 1.237.274 2.815-.713 4.344-1.67 1.371-1.06 3-1.739 4.719-1.966 1.726.196 3.366.859 4.744 1.916 1.54.937 3.137 1.911 4.35 1.619 1.303-.302 2.322-1.918 3.305-3.48.751-1.507 1.886-2.789 3.29-3.717 1.619-.547 3.353-.659 5.028-.324 1.817.18 3.694.364 4.698-.447 1.005-.812 1.227-2.698 1.433-4.516.024-1.706.497-3.374 1.372-4.838 1.212-1.182 2.715-2.024 4.357-2.44 1.728-.629 3.516-1.278 4.079-2.467.553-1.152-.062-2.923-.656-4.638-.72-1.563-1.018-3.287-.863-5.001.57-1.556 1.534-2.937 2.8-4.006.163-.168.404-.235.631-.177.227.058.406.233.469.459.063.226 0 .468-.163.635-1.082.91-1.928 2.067-2.464 3.375-.079 1.474.204 2.945.824 4.285.681 1.967 1.385 3.996.6 5.637-.793 1.674-2.838 2.416-4.816 3.135-1.405.356-2.701 1.05-3.776 2.021-.702 1.28-1.08 2.714-1.098 4.174-.236 2.08-.48 4.232-1.91 5.388-1.43 1.157-3.573.938-5.653.732-1.437-.29-2.922-.222-4.327.196-1.167.839-2.112 1.95-2.753 3.237-1.124 1.787-2.288 3.634-4.115 4.064-1.747.412-3.568-.7-5.331-1.776-1.186-.897-2.572-1.49-4.04-1.728h-.014c-1.467.248-2.85.855-4.027 1.767-1.333 1.033-2.916 1.694-4.588 1.915h0z" transform="translate(0 .68)"/>
                                <path stroke="#58B368" stroke-width="1.4" d="M5.448 58.565c-1.418-.005-2.622-1.037-2.845-2.437L.102 40.254c-.246-1.575.829-3.051 2.403-3.301l81.54-12.847c.757-.12 1.53.067 2.148.518.62.451 1.033 1.13 1.151 1.886l2.504 15.862c.245 1.575-.83 3.05-2.403 3.301L5.904 58.521c-.15.026-.303.041-.456.044h0zm-2.746-20.32c-.412.065-.783.291-1.029.63-.246.337-.347.759-.281 1.172l2.506 15.877c.065.413.29.784.63 1.03.337.246.76.347 1.173.28l81.54-12.847c.414-.064.785-.29 1.03-.629.247-.338.348-.76.282-1.173l-2.504-15.877c-.065-.413-.29-.783-.629-1.03-.338-.245-.76-.347-1.172-.281L2.702 38.246z" transform="translate(0 .68)"/>
                                <path stroke="#58B368" stroke-width="1.4" d="M44.973 69.892c-10.103-.028-19.446-5.369-24.596-14.06-.185-.312-.081-.714.23-.898.312-.184.714-.08.898.23 4.914 8.294 13.828 13.39 23.467 13.417h.15c12.679-.147 23.609-8.953 26.45-21.31.079-.353.43-.576.783-.497.354.079.577.43.498.783-2.978 12.95-14.434 22.18-27.722 22.335h-.158zM17.73 35.873c-.199 0-.387-.09-.512-.246-.124-.155-.171-.358-.128-.553 2.98-12.948 14.435-22.174 27.72-22.33h.159c10.102.027 19.445 5.366 24.597 14.056.185.311.081.713-.23.898-.312.184-.714.08-.898-.231-4.915-8.292-13.83-13.386-23.47-13.411h-.15c-12.676.147-23.605 8.95-26.448 21.304-.067.3-.333.513-.64.513h0z" transform="translate(0 .68)"/>
                            </g>
                        </g>
                    </g>
                </g>
            </g>
        </g>
    </g>
</svg>
