<svg xmlns="http://www.w3.org/2000/svg" width="80" height="74" viewBox="0 0 80 74">
    <g fill="none" fill-rule="evenodd">
        <g fill="#58B368" fill-rule="nonzero" stroke="#58B368" stroke-width=".503">
            <g>
                <g>
                    <g>
                        <path d="M90.909 25.584c-.77 2.046-1.677 4.018-2.54 6.023-1.613 3.74-3.46 7.483-5.429 11.046-3.565 6.447-6.166 13.508-9.116 20.251-1.611 3.69-3.4 7.385-5.233 10.964-.375.735-.723 1.75-1.278 2.385-.86.986-1.594.784-2.683.17-1.57-.886-3.199-1.676-4.745-2.612-3.293-1.998-6.516-4.042-9.724-6.16-1.31-.862-2.496-1.896-3.784-2.762-.265-.178-.547-.309-.835-.383l.227-.294c1.712-1.987 3.79-3.828 5.785-5.509 1.876-1.578 3.461-3.471 5.255-5.145 2.293-2.14 4.512-4.31 6.86-6.39 2.445-2.166 4.837-4.4 7.331-6.504 2.464-2.077 5.076-3.962 7.503-6.08 4.123-3.595 8.474-6.984 12.56-10.615.256-.139.51-.285.748-.444-.32.68-.64 1.359-.902 2.06zm-40.542 48.57c-1.468 1.862-2.726 3.838-4.062 5.797-1.375 2.02-2.898 3.942-4.364 5.892-.317.42-.648.836-.985 1.256.51-2.124 1.113-4.225 1.59-6.353.92-4.119 1.382-8.343 2.351-12.446.085-.357.185-1.193.37-1.445l.088-.14.095.046c.458.157 1.143.945 1.53 1.228 1.394 1.031 2.886 1.954 4.32 2.936.297.204.605.396.907.596-.725.764-1.26 1.903-1.84 2.634zm-11.321 12.26c-.068-.797-.135-1.594-.23-2.39-.297-2.475-.675-4.941-.93-7.42-.48-4.72-.96-9.392-1.714-14.079-.154-.957-.284-2.06-.683-3.003 2.498-.738 4.74-2.419 6.845-3.87 2.71-1.868 5.5-3.622 8.166-5.555 5.034-3.65 10.372-6.847 15.388-10.508 2.34-1.707 4.824-3.322 7.323-4.78 2.262-1.321 4.298-2.967 6.571-4.27.762-.438 1.503-.908 2.239-1.392-1.508 1.285-3.004 2.586-4.496 3.888-2.451 2.13-5.07 4.06-7.572 6.13-2.69 2.217-5.23 4.62-7.84 6.93-4.308 3.81-8.288 7.987-12.6 11.766-.99.868-1.97 1.854-2.91 2.777-.89.875-2.07 1.974-2.799 2.995-.841 1.173-.867 2.438-.876 3.727-.174.861-.262 1.75-.373 2.42-.36 2.211-.822 4.403-1.215 6.61-.436 2.445-.982 4.834-1.611 7.233-.24.927-.466 1.857-.683 2.79zm-4.43-28.187c-1.433-1.291-3.09-2.166-4.775-3.076-2.013-1.09-3.8-2.303-5.635-3.66-.876-.652-1.76-1.298-2.635-1.947-.493-.363-1.634-.97-2.185-1.628.994-.594 2.588-.85 3.542-1.143 1.748-.535 3.453-1.131 5.171-1.752 3.286-1.188 6.624-2.29 9.94-3.402 6.537-2.194 12.953-4.782 19.447-7.12 6.214-2.235 12.482-4.272 18.733-6.403 3.15-1.073 6.238-2.324 9.383-3.415-2.126 1.297-4.2 2.699-6.338 3.979-4.687 2.801-9.307 5.833-13.82 8.928-5.078 3.487-10.29 6.759-15.265 10.402-4.984 3.652-10.153 7.183-15.432 10.38l-.13-.143zM93.73 20.058c-.731.152-1.569.546-1.896.705-2.171 1.052-4.672 1.704-6.969 2.353-1.479.418-2.95.845-4.362 1.358C75.95 26.13 71.33 27.5 66.76 29.097c-4.424 1.546-8.81 3.243-13.28 4.647-4.518 1.417-8.843 3.446-13.315 5.004-4.574 1.594-9.227 2.984-13.77 4.66-2.248.828-4.592 1.372-6.807 2.275-.917.372-2.481.725-2.583 1.946-.093 1.099 1.145 1.91 1.883 2.481 1.83 1.421 3.717 2.78 5.559 4.188 1.63 1.247 3.507 2.155 5.311 3.119 1.859.995 3.683 2.026 4.167 4.162 1.232 5.432 1.399 11.083 2.052 16.592.331 2.805.778 5.59 1.025 8.403.126 1.422-.106 4.03 1.061 5.118.24.222.57.322.88.278.224.066.476.028.658-.16 1.427-1.492 2.6-3.31 3.87-4.933 1.528-1.957 3.068-3.916 4.472-5.964 1.418-2.074 2.806-4.094 4.35-6.075.462-.592 1.17-1.4 1.597-2.213 2.56 1.61 5.218 3.108 7.864 4.505 2.108 1.112 4.859 3.831 6.822 1.126 2.333-3.217 3.737-7.346 5.45-10.916 3.43-7.146 6.43-14.503 9.754-21.7 1.876-4.069 4.056-8.013 5.951-12.08.924-1.983 1.8-4.001 2.607-6.036.84-2.118 1.991-4.188 2.588-6.376.306-1.118-.382-1.255-1.197-1.09h0z" transform="translate(-1060 -375) translate(165 130) translate(760 132) translate(119 94)"/>
                    </g>
                </g>
            </g>
        </g>
    </g>
</svg>
