<?xml version="1.0" encoding="UTF-8"?>
<svg width="38px" height="50px" viewBox="0 0 38 50" version="1.1" xmlns="http://www.w3.org/2000/svg" xmlns:xlink="http://www.w3.org/1999/xlink">
    <title>36CBEA93-2FD3-4FC3-AEE3-F4965D480AC0</title>
    <g id="Symbols" stroke="none" stroke-width="1" fill="none" fill-rule="evenodd">
        <g id="Services-/-Icons-/-Interview-Training" transform="translate(-11.000000, -5.000000)" fill-rule="nonzero">
            <g id="notepad" transform="translate(11.000000, 5.000000)">
                <path d="M32.0473633,3.3950195 L24.0097656,3.3950195 C22.7348633,0.5200195 19.3847656,-0.7802735 16.4975586,0.482421875 C15.1972656,1.05761725 14.1601563,2.0947265 13.584961,3.3950195 L5.54736325,3.3950195 C2.522461,3.3950195 0.060058625,5.85742187 0.060058625,8.88232425 L0.060058625,44.5073242 C0.060058625,47.5322265 2.522461,49.9951172 5.54736325,49.9951172 L32.0473633,49.9951172 C35.0722656,49.9951172 37.5351563,47.5322265 37.5351563,44.5073242 L37.5351563,8.88232425 C37.5351563,5.8447265 35.0722656,3.3950195 32.0473633,3.3950195 L32.0473633,3.3950195 Z M14.4975586,5.8950195 C15.084961,5.8950195 15.5976563,5.48242187 15.7226563,4.9072265 C16.022461,3.50732425 17.3222656,2.49511725 18.7973633,2.49511725 C20.272461,2.49511725 21.5722656,3.50732425 21.8847656,4.9072265 C22.0097656,5.48242187 22.522461,5.8950195 23.1098633,5.8950195 L25.584961,5.8950195 L25.584961,6.99511725 C25.584961,8.6450195 24.2475586,9.98242187 22.5976563,9.98242187 L15.0097656,9.98242187 C13.3598633,9.98242187 12.022461,8.6450195 12.022461,6.99511725 L12.022461,5.8950195 L14.4975586,5.8950195 Z M35.0351563,44.5073242 C35.0351563,46.1572265 33.6972656,47.4951172 32.0473633,47.4951172 L5.54736325,47.4951172 C3.897461,47.4951172 2.56005863,46.1572265 2.56005863,44.5073242 L2.56005863,8.88232425 C2.56005863,7.23242187 3.897461,5.8950195 5.54736325,5.8950195 L9.50976563,5.8950195 L9.50976563,6.99511725 C9.50976563,10.0200195 11.9726563,12.4824219 14.9975586,12.4824219 L22.584961,12.4824219 C25.6098633,12.4824219 28.0722656,10.0200195 28.0722656,6.99511725 L28.0722656,5.8950195 L32.0473633,5.8950195 C33.6972656,5.8950195 35.0351563,7.23242187 35.0351563,8.88232425 L35.0351563,44.5073242 Z" id="Shape" fill="#B9BFD0"></path>
                <path d="M24.9848632,23.0947265 L16.772461,31.1074219 L12.6098633,27.0449219 C12.1225586,26.5576172 11.3222656,26.5698242 10.8476562,27.0698242 C10.3725586,27.5576172 10.3725586,28.3325195 10.8476562,28.8198242 L10.8598633,28.8325195 L15.897461,33.7573242 C16.3847656,34.2324219 17.1601562,34.2324219 17.647461,33.7573242 L26.7226562,24.8950195 C27.209961,24.4072265 27.2226562,23.6201172 26.7348632,23.1323242 C26.2597656,22.6201172 25.4726562,22.6074219 24.9848632,23.0947265 L24.9848632,23.0947265 Z" id="Path" fill="#FFCA7B"></path>
            </g>
        </g>
    </g>
</svg>