<?xml version="1.0" encoding="UTF-8"?>
<svg width="38px" height="50px" viewBox="0 0 38 50" version="1.1" xmlns="http://www.w3.org/2000/svg" xmlns:xlink="http://www.w3.org/1999/xlink">
    <title>F5EFC9CD-FD5D-4275-BE47-851267536D3E</title>
    <g id="Symbols" stroke="none" stroke-width="1" fill="none" fill-rule="evenodd">
        <g id="Services-/-Icons-/-Resume-+-LinkedIn-review" transform="translate(-11.000000, -5.000000)" fill-rule="nonzero">
            <g id="resume" transform="translate(11.000000, 5.000000)">
                <path d="M24.9194943,0.349135568 L24.908076,0.337717243 C24.6959596,0.119013527 24.4034763,-0.00307415503 24.0986963,3.98170756e-06 C24.0574149,-0.00131749822 24.0156943,0.00219581538 23.9752912,0.0118574615 L5.85186295,0.0118574615 C2.62400613,0.0131749822 0.0074657858,2.62971524 0.00570912899,5.85801131 L0.00570912899,43.6331592 C0.0074657858,46.8610161 2.62400613,49.4775564 5.85186295,49.4793131 L32.1371579,49.4793131 C35.3654539,49.4775564 37.9819943,46.8610161 37.9833117,43.6331592 L37.9833117,13.8512389 C37.9811159,13.5534856 37.8642983,13.2675897 37.6574519,13.0532776 L24.9194943,0.349135568 Z M25.2229567,3.82292434 L34.1722448,12.749376 L28.8205898,12.749376 C26.8360069,12.7436667 25.2286659,11.1363259 25.2229567,9.15174282 L25.2229567,3.82292434 Z M35.734791,43.6103227 C35.7290819,45.5949058 34.1217409,47.2022466 32.1371579,47.2079558 L5.85186295,47.2079558 C3.86728001,47.2022466 2.26037817,45.5949058 2.25422982,43.6103227 L2.25422982,5.83517477 C2.26037817,3.85103085 3.86728001,2.24368988 5.85186295,2.23754163 L22.974436,2.23754163 L22.974436,9.15174282 C22.9761927,12.3800389 25.592733,14.9965791 28.8205898,14.9978967 L35.734791,14.9978967 L35.734791,43.6103227 Z" id="Shape" fill="#B9BFD0"></path>
                <path d="M8.05558897,31.31109 L22.0640486,31.31109 C22.6845877,31.31109 23.188309,30.8078079 23.188309,30.1868297 C23.188309,29.5658515 22.6845877,29.0625693 22.0640486,29.0625693 L8.05558897,29.0625693 C7.43461073,29.0625693 6.93132862,29.5658515 6.93132862,30.1868297 C6.93132862,30.8078079 7.43461073,31.31109 8.05558897,31.31109 Z" id="Path" fill="#FFCA7B"></path>
                <path d="M6.93132862,38.6973928 C6.93308527,39.3174926 7.43548912,39.8198964 8.05558897,39.8216531 L29.9338711,39.8216531 C30.5544102,39.8216531 31.0581314,39.3183709 31.0581314,38.6973928 C31.0581314,38.0764146 30.5544102,37.5731324 29.9338711,37.5731324 L8.05558897,37.5731324 C7.43548912,37.5748891 6.93308527,38.0772929 6.93132862,38.6973928 Z" id="Path" fill="#FFCA7B"></path>
                <g id="Group" transform="translate(6.857988, 7.757396)" fill="#B9BFD0">
                    <path d="M5.69464222,8.35378149 C7.97346524,8.35378149 9.82058981,6.50621767 9.82058981,4.22783379 C9.82058981,1.94901078 7.97346524,0.101446959 5.69464222,0.101446959 C3.4158191,0.101446959 1.56869453,1.94901078 1.56869453,4.22783379 C1.57001205,6.50577853 3.41625835,8.35202472 5.69464222,8.35378149 Z M5.69464222,2.36138588 C6.73150888,2.36138588 7.5720691,3.20194622 7.5720691,4.23881287 C7.5720691,5.27567952 6.73150888,6.11623986 5.69464222,6.11623986 C4.65777557,6.11623986 3.81721524,5.27567952 3.81721524,4.23881287 C3.81897189,3.20282449 4.65865385,2.36314254 5.69464222,2.36138588 Z" id="Shape"></path>
                    <path d="M1.1976008,16.7519184 C1.81770066,16.7501618 2.3201045,16.2477579 2.32186116,15.6276581 L2.32186116,14.7282498 C2.32186116,12.8653153 3.83170763,11.3554687 5.69464222,11.3554687 C7.55713757,11.3554687 9.06742329,12.8653153 9.06742329,14.7282498 L9.06742329,15.6276581 C9.06742329,16.2486363 9.57070541,16.7519184 10.1916836,16.7519184 C10.8126618,16.7519184 11.315944,16.2486363 11.315944,15.6276581 L11.315944,14.7282498 C11.315944,11.6237981 8.79909393,9.10694801 5.69464222,9.10694801 C2.5901904,9.10694801 0.0733404497,11.6237981 0.0733404497,14.7282498 L0.0733404497,15.6276581 C0.0750971065,16.2477579 0.577500953,16.7501618 1.1976008,16.7519184 Z" id="Path"></path>
                </g>
            </g>
        </g>
    </g>
</svg>