<?xml version="1.0" encoding="UTF-8"?>
<svg width="52px" height="44px" viewBox="0 0 52 44" version="1.1" xmlns="http://www.w3.org/2000/svg" xmlns:xlink="http://www.w3.org/1999/xlink">
    <title>804DB6E1-6293-4737-A011-A4FB19344E89</title>
    <g id="Symbols" stroke="none" stroke-width="1" fill="none" fill-rule="evenodd">
        <g id="Services-/-Icons-/-Job-Search-Strategy" transform="translate(-4.000000, -8.000000)" fill-rule="nonzero">
            <g id="search" transform="translate(5.000000, 9.000000)">
                <path d="M45.3959149,37.0619879 C48.1110158,33.8440282 48.8503903,29.3993792 47.3233298,25.4752329 C45.7966895,21.5515068 42.2472717,18.7754916 38.071066,18.239025 L38.071066,5.06219479 C38.0681253,2.27189624 35.8067315,0.0109225243 33.0164329,0.00756178482 L5.05463306,0.00756178482 C2.26433451,0.0109225243 0.00336079325,2.27231631 0,5.06219479 L0,28.5726241 C0.00336079325,31.3629227 2.26433451,33.6243164 5.05463306,33.6272572 L25.7995495,33.6272572 C27.1216016,37.2241461 30.1479959,39.9258038 33.8709146,40.8327979 C37.5942534,41.7397919 41.5242811,40.7332343 44.3523886,38.1475241 L48.3088824,42.1040179 C48.6029519,42.3976672 49.0793443,42.3976672 49.3734137,42.1040179 C49.6674831,41.8099485 49.6674831,41.3331359 49.3734137,41.0390665 L45.3959149,37.0619879 Z M5.05463306,1.51319711 L33.0164329,1.51319711 C34.9757754,1.51571776 36.5633301,3.1032725 36.5654306,5.06219479 L36.5654306,8.75570657 L1.50563538,8.75570657 L1.50563538,5.06219479 C1.50773585,3.1032725 3.09529059,1.51571776 5.05463306,1.51319711 Z M5.05463306,32.1216218 C3.09571066,32.1195212 1.50773585,30.5319666 1.50563538,28.5726241 L1.50563538,10.261342 L36.5654306,10.261342 L36.5654306,18.1453429 C33.0861694,18.1562655 29.7984734,19.7400393 27.6219397,22.4547201 C25.4449858,25.1694008 24.6136097,28.7225995 25.3592856,32.1212016 L5.05463306,32.1216218 Z M26.5973178,29.652699 C26.5973178,24.1288152 31.0751548,19.6509782 36.5990385,19.6509782 C42.1229223,19.6509782 46.6007593,24.1288152 46.6007593,29.652699 C46.6007593,35.1765829 42.1229223,39.6544197 36.5990385,39.6544197 C31.0776753,39.6485384 26.6031993,35.1740622 26.5973178,29.652699 Z" id="Shape" stroke="#B9BFD0" stroke-width="0.847457627" fill="#B9BFD0"></path>
                <path d="M5.76119517,18.31109 L16.1014621,18.31109 C16.5595096,18.31109 16.9313286,17.8078079 16.9313286,17.1868297 C16.9313286,16.5658515 16.5595096,16.0625693 16.1014621,16.0625693 L5.76119517,16.0625693 C5.30282352,16.0625693 4.93132862,16.5658515 4.93132862,17.1868297 C4.93132862,17.8078079 5.30282352,18.31109 5.76119517,18.31109 Z" id="Path" fill="#FFCA7B"></path>
                <path d="M4.93132862,23.6973928 C4.93263918,24.3174926 5.30746171,24.8198964 5.77009231,24.8216531 L22.0925649,24.8216531 C22.5555232,24.8216531 22.9313286,24.3183709 22.9313286,23.6973928 C22.9313286,23.0764146 22.5555232,22.5731324 22.0925649,22.5731324 L5.77009231,22.5731324 C5.30746171,22.5748891 4.93263918,23.0772929 4.93132862,23.6973928 Z" id="Path" fill="#FFCA7B"></path>
            </g>
        </g>
    </g>
</svg>