<?xml version="1.0" encoding="UTF-8"?>
<svg width="48px" height="40px" viewBox="0 0 48 40" version="1.1" xmlns="http://www.w3.org/2000/svg" xmlns:xlink="http://www.w3.org/1999/xlink">
    <title>CFD9D67A-77AD-4F0D-9E79-A62BC985ACE1</title>
    <g id="Symbols" stroke="none" stroke-width="1" fill="none" fill-rule="evenodd">
        <g id="Services-/-Icons-/-Career-Ladder-Coaching" transform="translate(-6.000000, -11.000000)" fill-rule="nonzero">
            <g id="success" transform="translate(7.000000, 11.000000)">
                <path d="M43.2041564,10.5182415 L39.3654739,10.5182415 L39.365,14.995 L38.4364313,14.9956884 C37.4040316,14.9956884 36.5670696,15.8326504 36.5670696,16.8650501 L36.5670696,38.9575472 L44.1078641,38.9575472 C45.1402638,38.9575472 45.9772258,38.1205852 45.9772258,37.0881854 L45.9772258,16.8650501 L45.9716015,16.7189632 C45.897072,15.7548376 45.0911019,14.9956884 44.1078641,14.9956884 L43.204,14.995 L43.2041564,10.5182415 Z M41.704,12.018 L41.7041564,16.4956884 L44.1078641,16.4956884 C44.3118367,16.4956884 44.4772258,16.6610775 44.4772258,16.8650501 L44.4772258,37.0881854 L44.4697209,37.1626189 C44.4352757,37.3309211 44.2863401,37.4575472 44.1078641,37.4575472 L38.067,37.457 L38.0670696,16.8650501 C38.0670696,16.6610775 38.2324587,16.4956884 38.4364313,16.4956884 L40.8654739,16.4956884 L40.865,12.018 L41.704,12.018 Z" id="Path" stroke="#B9BFD0" stroke-width="0.7" fill="#B9BFD0"></path>
                <g id="Group" transform="translate(27.336704, 0.000000)" fill="#FFCA7B">
                    <path d="M7.83537372,9.02951798 L16.7902676,9.02951798 L16.7902676,1.11936173 C16.7902676,0.50117556 16.289092,-8.8817842e-16 15.6709059,-8.8817842e-16 L7.83537372,-8.8817842e-16 L7.83537372,9.02951798 Z" id="Path"></path>
                    <path d="M0.13207552,2.9047437 C-0.0624695495,3.26876013 -0.0406046836,3.71038565 0.187819734,4.05365658 L2.01230474,6.79079452 L0.187894358,9.52800708 C-0.0406046836,9.87127801 -0.0623949254,10.3129035 0.132150144,10.67692 C0.326695213,11.0409364 0.706009593,11.2682415 1.11920332,11.2682415 L5.59665025,11.2682415 L5.59665025,2.31334758 L1.11920332,2.31334758 C0.706009593,2.31334758 0.326695213,2.54072726 0.13207552,2.9047437 L0.13207552,2.9047437 Z" id="Path"></path>
                </g>
                <path d="M31.9524248,21.7118588 L26.3556162,21.7118588 C25.3232164,21.7118588 24.4862544,22.5488208 24.4862544,23.5812205 L24.4862544,38.9575472 L33.8217866,38.9575472 L33.8217866,23.5812205 C33.8217866,22.5488208 32.9848246,21.7118588 31.9524248,21.7118588 Z M31.9524248,23.2118588 L32.0268583,23.2193637 C32.1951605,23.2538089 32.3217866,23.4027445 32.3217866,23.5812205 L32.321,37.457 L25.986,37.457 L25.9862544,23.5812205 C25.9862544,23.3772479 26.1516435,23.2118588 26.3556162,23.2118588 L31.9524248,23.2118588 Z" id="Path" stroke="#B9BFD0" stroke-width="0.7" fill="#B9BFD0"></path>
                <path d="M19.8716097,26.1893057 L14.274801,26.1893057 C13.2424013,26.1893057 12.4054393,27.0262677 12.4054393,28.0586675 L12.4054393,38.9575472 L21.7409714,38.9575472 L21.7409714,28.0586675 C21.7409714,27.0262677 20.9040094,26.1893057 19.8716097,26.1893057 Z M19.8716097,27.6893057 L19.9460431,27.6968107 C20.1143454,27.7312559 20.2409714,27.8801914 20.2409714,28.0586675 L20.24,37.457 L13.905,37.457 L13.9054393,28.0586675 C13.9054393,27.8546948 14.0708284,27.6893057 14.274801,27.6893057 L19.8716097,27.6893057 Z" id="Path" stroke="#B9BFD0" stroke-width="0.7" fill="#B9BFD0"></path>
                <path d="M7.79079452,30.6667527 L2.11936173,30.6667527 C1.086962,30.6667527 0.25,31.5037147 0.25,32.5361144 L0.25,37.0881854 C0.25,38.1205852 1.086962,38.9575472 2.11936173,38.9575472 L9.66015625,38.9575472 L9.66015625,32.5361144 C9.66015625,31.5037147 8.82319425,30.6667527 7.79079452,30.6667527 Z M7.86522798,32.1742576 C8.0335302,32.2087028 8.16015625,32.3576384 8.16015625,32.5361144 L8.16,37.457 L2.11936173,37.4575472 C1.91538912,37.4575472 1.75,37.292158 1.75,37.0881854 L1.75,32.5361144 C1.75,32.3321418 1.91538912,32.1667527 2.11936173,32.1667527 L7.79079452,32.1667527 L7.86522798,32.1742576 Z" id="Path" stroke="#B9BFD0" stroke-width="0.7" fill="#B9BFD0"></path>
            </g>
        </g>
    </g>
</svg>